name analog
datacolumns 19
datarows 38
range 0.6425 0.661
endheader
time	ground_force_vx	ground_force_vy	ground_force_vz	ground_force_px	ground_force_py	ground_force_pz	l_ground_force_vx	l_ground_force_vy	l_ground_force_vz	l_ground_force_px	l_ground_force_py	l_ground_force_pz	ground_torque_x	ground_torque_y	ground_torque_z	l_ground_torque_x	l_ground_torque_y	l_ground_torque_z
0.6425	-0.0	-0.0	-0.0	-1.3612617254257202	37.5931510925293	-442.5344848632813	6.7420196533203125	-37.35739135742188	-383.89752197265625	-0.0	-0.0	-0.0	-0.0	-0.0	-0.0	76740.0703125	11040.908203125	-4150.91943359375
0.643	-0.0	-0.0	-0.0	-1.163097858428955	37.50077819824219	-439.7356567382813	6.71912956237793	-36.67912673950195	-384.6525573730469	-0.0	-0.0	-0.0	-0.0	-0.0	-0.0	76321.90625	11186.072265625	-4112.53076171875
0.6435	-0.0	-0.0	-0.0	-1.0901912450790403	36.7484016418457	-439.6812133789063	6.696162223815918	-36.849979400634766	-383.7176513671875	-0.0	-0.0	-0.0	-0.0	-0.0	-0.0	76349.9140625	10998.876953125	-4165.23046875
0.644	-0.0	-0.0	-0.0	-0.4264355301856994	36.92316436767578	-438.58599853515625	6.7420196533203125	-36.103782653808594	-383.7958679199219	-0.0	-0.0	-0.0	-0.0	-0.0	-0.0	76193.765625	11031.5654296875	-4165.01318359375
0.6445	-0.0	-0.0	-0.0	0.0659738406538963	37.34190368652344	-436.7915954589844	6.810969829559326	-36.14324569702149	-382.8384399414063	-0.0	-0.0	-0.0	-0.0	-0.0	-0.0	75865.2578125	11367.1357421875	-4126.56005859375
0.645	-0.0	-0.0	-0.0	0.1784210205078125	37.25262451171875	-436.62255859375	6.646554946899414	-35.98940658569336	-381.7000427246094	-0.0	-0.0	-0.0	-0.0	-0.0	-0.0	75772.8984375	11200.576171875	-4185.91455078125
0.6455	-0.0	-0.0	-0.0	0.3062683343887329	37.508575439453125	-436.37744140625	6.45284366607666	-36.1660041809082	-380.23974609375	-0.0	-0.0	-0.0	-0.0	-0.0	-0.0	75845.09375	11314.220703125	-4180.67919921875
0.646	-0.0	-0.0	-0.0	0.484456330537796	37.25238037109375	-434.6884765625	6.541515827178955	-35.85500717163086	-381.3359375	-0.0	-0.0	-0.0	-0.0	-0.0	-0.0	75679.3984375	11177.4033203125	-4047.69287109375
0.6465	-0.0	-0.0	-0.0	0.2399668097496032	37.81464385986328	-434.7475280761719	6.892547130584717	-35.946929931640625	-379.953125	-0.0	-0.0	-0.0	-0.0	-0.0	-0.0	75720.625	11252.185546875	-3972.740234375
0.647	-0.0	-0.0	-0.0	-0.0424079596996307	37.76209259033203	-432.2748718261719	7.0505690574646	-35.881649017333984	-379.6189270019531	-0.0	-0.0	-0.0	-0.0	-0.0	-0.0	75469.9921875	11318.9599609375	-4082.2568359375
0.6475	-0.0	-0.0	-0.0	0.1126461327075958	37.95519256591797	-430.4694519042969	6.672476291656494	-35.639801025390625	-380.2102966308594	-0.0	-0.0	-0.0	-0.0	-0.0	-0.0	75256.109375	11212.1943359375	-4010.29443359375
0.648	-0.0	-0.0	-0.0	0.3052057325839996	37.86165237426758	-430.9910278320313	6.480055809020996	-35.97004699707031	-378.4803466796875	-0.0	-0.0	-0.0	-0.0	-0.0	-0.0	75255.859375	11489.216796875	-4038.83740234375
0.6485	-0.0	-0.0	-0.0	0.0373411774635314	38.0538444519043	-431.8268127441406	6.5456624031066895	-35.923770904541016	-379.2532043457031	-0.0	-0.0	-0.0	-0.0	-0.0	-0.0	75305.75	11336.4853515625	-4227.98095703125
0.649	-0.0	-0.0	-0.0	-0.0186050534248352	37.94603729248047	-431.3258972167969	6.648899078369141	-36.07721710205078	-377.5245361328125	-0.0	-0.0	-0.0	-0.0	-0.0	-0.0	75424.46875	11387.552734375	-4038.743896484375
0.6495	-0.0	-0.0	-0.0	0.0656365156173706	37.52898025512695	-430.8063354492188	6.3451032638549805	-36.211891174316406	-379.0868835449219	-0.0	-0.0	-0.0	-0.0	-0.0	-0.0	75106.25	11383.5244140625	-4202.91015625
0.65	-0.0	-0.0	-0.0	0.0655976831912994	37.814884185791016	-433.310302734375	6.275108337402344	-35.6681022644043	-376.6798095703125	-0.0	-0.0	-0.0	-0.0	-0.0	-0.0	74872.9296875	11437.21484375	-4160.71826171875
0.6505	-0.0	-0.0	-0.0	-0.0762324631214141	37.92765045166016	-432.3436279296875	6.097664833068848	-35.528594970703125	-377.616943359375	-0.0	-0.0	-0.0	-0.0	-0.0	-0.0	75036.2421875	11644.9990234375	-4165.470703125
0.651	-0.0	-0.0	-0.0	-0.3094949424266815	37.22016143798828	-431.58587646484375	5.831493854522705	-35.46363067626953	-377.5445861816406	-0.0	-0.0	-0.0	-0.0	-0.0	-0.0	74914.390625	11633.4892578125	-4181.31787109375
0.6515	-0.0	-0.0	-0.0	-0.047424778342247	37.30389022827149	-431.2550354003906	5.831455230712891	-35.175384521484375	-378.5525512695313	-0.0	-0.0	-0.0	-0.0	-0.0	-0.0	74889.3203125	11746.8095703125	-4268.56494140625
0.652	-0.0	-0.0	-0.0	0.0180242806673049	37.09625625610352	-431.371826171875	5.878384590148926	-35.227298736572266	-377.4532775878906	-0.0	-0.0	-0.0	-0.0	-0.0	-0.0	74842.9453125	11853.462890625	-4307.78515625
0.6525	-0.0	-0.0	-0.0	0.2913991212844848	37.19112777709961	-428.5954895019531	5.771535396575928	-35.06371307373047	-377.1047668457031	-0.0	-0.0	-0.0	-0.0	-0.0	-0.0	74808.4375	11987.701171875	-4232.81884765625
0.653	-0.0	-0.0	-0.0	0.3866636157035827	36.74551010131836	-430.0085144042969	5.281035900115967	-35.22237014770508	-376.7129821777344	-0.0	-0.0	-0.0	-0.0	-0.0	-0.0	74587.8984375	11909.4033203125	-4356.09375
0.6535	-0.0	-0.0	-0.0	-0.1130387708544731	36.5257568359375	-428.7846374511719	5.233936309814453	-35.169952392578125	-377.4329223632813	-0.0	-0.0	-0.0	-0.0	-0.0	-0.0	74603.0546875	12050.6416015625	-4419.13525390625
0.654	-0.0	-0.0	-0.0	-0.3028499484062195	36.74557113647461	-430.0539245605469	4.884823322296143	-35.31657791137695	-377.4807434082031	-0.0	-0.0	-0.0	-0.0	-0.0	-0.0	74562.8203125	12272.056640625	-4431.41748046875
0.6545	-0.0	-0.0	-0.0	-0.6722854375839233	36.68036651611328	-428.0540771484375	4.790382385253906	-35.016624450683594	-375.8034057617188	-0.0	-0.0	-0.0	-0.0	-0.0	-0.0	74602.375	12165.4453125	-4368.0693359375
0.655	-0.0	-0.0	-0.0	-0.9160374402999878	36.121726989746094	-428.5709533691406	4.654321670532227	-35.464141845703125	-376.5482482910156	-0.0	-0.0	-0.0	-0.0	-0.0	-0.0	74372.40625	12340.4130859375	-4512.62890625
0.6555	-0.0	-0.0	-0.0	-0.8202052116394043	36.74567031860352	-428.0804443359375	4.701671600341797	-35.54643249511719	-378.0379028320313	-0.0	-0.0	-0.0	-0.0	-0.0	-0.0	74545.4140625	12173.0	-4536.3544921875
0.656	-0.0	-0.0	-0.0	-1.0877201557159424	36.25209045410156	-424.9974670410156	4.441819667816162	-35.128387451171875	-376.7593078613281	-0.0	-0.0	-0.0	-0.0	-0.0	-0.0	74547.53125	12472.2783203125	-4406.08251953125
0.6565	-0.0	-0.0	-0.0	-0.6073960065841675	36.632598876953125	-426.3558044433594	4.483112335205078	-35.80483627319336	-377.7390747070313	-0.0	-0.0	-0.0	-0.0	-0.0	-0.0	74867.3671875	12703.3310546875	-4536.55029296875
0.657	-0.0	-0.0	-0.0	-1.200814723968506	36.89998626708984	-427.8914794921875	4.158642768859863	-35.940433502197266	-377.3648681640625	-0.0	-0.0	-0.0	-0.0	-0.0	-0.0	74976.0703125	12564.64453125	-4558.5107421875
0.6575	-0.0	-0.0	-0.0	-1.4586827754974363	36.81085968017578	-427.4146423339844	4.056849479675293	-35.722801208496094	-381.4087219238281	-0.0	-0.0	-0.0	-0.0	-0.0	-0.0	75058.5234375	12553.0087890625	-4655.46826171875
0.658	-0.0	-0.0	-0.0	-1.8083540201187132	36.54346466064453	-428.5401306152344	3.838449239730835	-35.6343994140625	-381.3675842285156	-0.0	-0.0	-0.0	-0.0	-0.0	-0.0	75256.6328125	12657.2919921875	-4706.9296875
0.6585	-0.0	-0.0	-0.0	-1.9626312255859373	37.07080459594727	-428.73095703125	3.920263767242432	-35.95381546020508	-382.7642822265625	-0.0	-0.0	-0.0	-0.0	-0.0	-0.0	75653.59375	12789.669921875	-4806.23779296875
0.659	-0.0	-0.0	-0.0	-1.767613410949707	36.91657257080078	-429.3052978515625	3.435774803161621	-36.412376403808594	-383.8118896484375	-0.0	-0.0	-0.0	-0.0	-0.0	-0.0	75979.3828125	13017.9150390625	-4863.7001953125
0.6595	-0.0	-0.0	-0.0	-1.5815458297729492	37.31365966796875	-431.3287048339844	3.500462532043457	-36.41961288452149	-384.76507568359375	-0.0	-0.0	-0.0	-0.0	-0.0	-0.0	75950.171875	12856.4921875	-4850.02001953125
0.66	-0.0	-0.0	-0.0	-2.035409688949585	36.76238250732422	-431.8430480957031	3.5004191398620605	-36.85404586791992	-384.3502197265625	-0.0	-0.0	-0.0	-0.0	-0.0	-0.0	76148.6953125	13010.3623046875	-4931.1015625
0.6605	-0.0	-0.0	-0.0	-2.157367706298828	36.52716827392578	-433.0617980957031	3.919851303100586	-36.6204948425293	-386.7947692871094	-0.0	-0.0	-0.0	-0.0	-0.0	-0.0	76329.9453125	13287.4033203125	-4909.12060546875
0.661	-0.0	-0.0	-0.0	-2.1248533725738525	36.68935775756836	-435.0854797363281	3.4356372356414795	-37.03076553344727	-386.8599853515625	-0.0	-0.0	-0.0	-0.0	-0.0	-0.0	76417.625	13048.748046875	-4925.6884765625
